<svg width="512" height="512" viewBox="0 0 512 512" fill="none" xmlns="http://www.w3.org/2000/svg">
<path d="M332.762 108.884V458C327.29 458.003 321.81 456.993 316.579 454.951L182.565 402.557C181.858 402.281 181.129 402.138 180.413 402.118V53C185.828 53.0177 191.245 54.029 196.421 56.0494L330.435 108.443C331.201 108.741 331.991 108.886 332.762 108.884Z" fill="#2D2D2D"/>
<path d="M180.413 53.0002C176.918 52.9889 173.424 53.3912 169.996 54.2035L77.0924 76.4064C55.4208 81.5623 40 102.242 40 126.101V371.982C40 404.556 68.0481 428.746 97.6385 421.673L178.836 402.284C179.346 402.159 179.876 402.104 180.413 402.118V53.0002Z" fill="black"/>
<path d="M332.762 108.884V458C336.199 457.997 339.633 457.595 343.003 456.795L435.908 434.593C457.577 429.438 473 408.756 473 384.899V139.017C473 106.442 444.953 82.255 415.362 89.3259L334.164 108.716C333.709 108.827 333.239 108.883 332.762 108.884Z" fill="black"/>
</svg>
