<svg width="512" height="512" viewBox="0 0 512 512" fill="none" xmlns="http://www.w3.org/2000/svg">
<path d="M297.537 181.287V358C294.593 358.001 291.644 357.49 288.829 356.457L216.715 329.936C216.335 329.796 215.943 329.724 215.557 329.714V153C218.471 153.009 221.386 153.521 224.171 154.544L296.285 181.064C296.697 181.215 297.122 181.288 297.537 181.287Z" fill="#2D2D2D"/>
<path d="M215.557 153C213.676 152.994 211.796 153.198 209.952 153.609L159.96 164.848C148.298 167.457 140 177.925 140 190.002V314.46C140 330.948 155.093 343.192 171.016 339.612L214.709 329.798C214.983 329.735 215.268 329.707 215.557 329.714V153Z" fill="black"/>
<path d="M297.537 181.287V358C299.387 357.998 301.235 357.795 303.048 357.39L353.041 346.152C364.701 343.543 373 333.074 373 320.998V196.54C373 180.051 357.907 167.808 341.985 171.387L298.291 181.202C298.047 181.258 297.793 181.287 297.537 181.287Z" fill="black"/>
</svg>
